<svg width="205" height="50" viewBox="0 0 205 50" fill="none" xmlns="http://www.w3.org/2000/svg">
<g clip-path="url(#clip0_424_7313)">
<path d="M66 16H74.3296C80.6882 16 85.0089 20.0089 85.0089 25.8886C85.0089 31.7684 80.6882 35.7662 74.3296 35.7662H66V16ZM74.1626 33.3163C79.0512 33.3163 82.1804 30.3207 82.1804 25.8886C82.1804 21.4566 79.0512 18.4276 74.1626 18.4276H68.8285V33.2828L74.1626 33.3163Z" fill="white"/>
<path d="M93.0088 27.2472V16H95.8373V27.1359C95.8373 31.5234 97.8418 33.4944 101.405 33.4944C104.969 33.4944 106.973 31.5234 106.973 27.1359V16H109.713V27.2472C109.713 32.971 106.572 36 101.35 36C96.1268 36 93.0088 32.971 93.0088 27.2472Z" fill="white"/>
<path d="M130.931 35.7662L126.666 29.6971C126.276 29.6971 125.853 29.6971 125.419 29.6971H120.541V35.7105H117.713V16H125.419C130.564 16 133.671 18.6058 133.671 22.8931C133.736 24.2676 133.344 25.6252 132.557 26.7534C131.769 27.8817 130.629 28.7172 129.316 29.1292L134.005 35.8107L130.931 35.7662ZM130.842 22.882C130.842 20.0534 128.949 18.4276 125.341 18.4276H120.541V27.3363H125.341C128.949 27.3363 130.842 25.7216 130.842 22.882Z" fill="white"/>
<path d="M155.223 35.7662L150.958 29.6971C150.568 29.6971 150.145 29.6971 149.722 29.6971H144.833V35.7105H142.004V16H149.722C154.855 16 157.962 18.6058 157.962 22.8931C158.028 24.2662 157.638 25.6227 156.853 26.7508C156.067 27.8789 154.93 28.7152 153.619 29.1292L158.307 35.8107L155.223 35.7662ZM155.145 22.882C155.145 20.0534 153.252 18.4276 149.632 18.4276H144.833V27.3363H149.632C153.252 27.3363 155.145 25.7216 155.145 22.882Z" fill="white"/>
<path d="M179.898 30.833H169.386L167.158 35.7662H164.308L173.216 16H176.011L184.987 35.7662H182.025L179.898 30.833ZM178.907 28.6058L174.642 18.9176L170.377 28.6058H178.907Z" fill="white"/>
<path d="M190.987 16H193.782V33.3163H204.495V35.7662H190.987V16Z" fill="white"/>
<path d="M46.3827 1.5H5.61725C3.6195 1.5 2 3.1195 2 5.11725V45.8827C2 47.8805 3.6195 49.5 5.61725 49.5H46.3827C48.3805 49.5 50 47.8805 50 45.8827V5.11725C50 3.1195 48.3805 1.5 46.3827 1.5Z" stroke="white" stroke-width="2" stroke-miterlimit="10"/>
<path d="M50.0001 26.5977H27.6624C25.8878 26.5924 24.1307 26.9481 22.4978 27.6432C21.0718 28.258 19.9202 29.3737 19.2604 30.7795V30.7795C18.4152 32.5847 17.9774 34.5537 17.978 36.5469V36.5469" stroke="white" stroke-width="2" stroke-miterlimit="10"/>
<path d="M12.9282 49.4998L13.2244 41.7844C13.5449 40.0751 14.525 38.5604 15.9531 37.5678C16.3015 37.3343 18.605 35.8254 21.351 36.7384C22.3982 37.1029 23.3293 37.7401 24.0484 38.5841C24.7675 39.4282 25.2487 40.4487 25.4422 41.5405V49.4998" stroke="white" stroke-width="2" stroke-miterlimit="10"/>
<path d="M21.8843 40.5369C21.7157 40.3883 21.5191 40.2751 21.306 40.2038C21.0929 40.1326 20.8677 40.1048 20.6437 40.1222C19.6191 40.293 18.8803 41.9134 19.3403 43.0878C19.8003 44.2622 21.2675 44.4817 21.5358 44.5131C23.2259 44.7152 24.3585 43.3666 24.4421 43.2655C24.744 42.8807 24.9645 42.4385 25.0903 41.9659C25.2161 41.4932 25.2446 41 25.1739 40.516" stroke="white" stroke-width="2" stroke-miterlimit="10"/>
<path d="M25.4424 45.6982H49.763" stroke="white" stroke-width="2" stroke-miterlimit="10"/>
<path d="M7.29346 16.2162L29.1817 16.157C28.9168 15.7667 24.958 10.1596 17.9117 10.3443C11.2522 10.5185 7.63149 15.7144 7.29346 16.2162Z" stroke="white" stroke-width="2" stroke-miterlimit="10"/>
<path d="M18.2393 9.9298V1.5" stroke="white" stroke-width="2" stroke-miterlimit="10"/>
<path d="M14.7407 16.1956C14.8111 17.0767 15.2113 17.8988 15.8614 18.4976C16.5115 19.0964 17.3637 19.4278 18.2476 19.4256C19.1314 19.4234 19.9819 19.0878 20.629 18.4857C21.2762 17.8837 21.6723 17.0596 21.7383 16.1782" stroke="white" stroke-width="2" stroke-miterlimit="10"/>
</g>
<defs>
<clipPath id="clip0_424_7313">
<rect width="204" height="50" fill="white" transform="translate(0.5)"/>
</clipPath>
</defs>
</svg>
