<svg width="56" height="56" viewBox="0 0 56 56" fill="none" xmlns="http://www.w3.org/2000/svg">
<path d="M0 28C0 43.464 12.536 56 28 56C43.464 56 56 43.464 56 28C56 12.536 43.464 0 28 0C12.536 0 0 12.536 0 28Z" fill="#205B56" fill-opacity="0.24"/>
<path d="M18 37.9897H38" stroke="#40B5AB" stroke-width="1.5" stroke-miterlimit="10" stroke-linecap="round" stroke-linejoin="round"/>
<path d="M31.01 37.9796L19.01 38L19 22.7609C19 22.0775 19.34 21.4451 19.89 21.0677L23.89 18.3443C24.56 17.8852 25.44 17.8852 26.11 18.3443L30.11 21.0677C30.67 21.4451 31 22.0775 31 22.7609L31.01 37.9796Z" stroke="#40B5AB" stroke-width="1.5" stroke-miterlimit="10" stroke-linecap="round" stroke-linejoin="round"/>
<path d="M35.98 37.9999V33.9097" stroke="#40B5AB" stroke-width="1.5" stroke-miterlimit="10" stroke-linecap="round" stroke-linejoin="round"/>
<path d="M36 27.7897C34.9 27.7897 34 28.7077 34 29.8297V31.8697C34 32.9918 34.9 33.9098 36 33.9098C37.1 33.9098 38 32.9918 38 31.8697V29.8297C38 28.7077 37.1 27.7897 36 27.7897Z" stroke="#40B5AB" stroke-width="1.5" stroke-miterlimit="10" stroke-linecap="round" stroke-linejoin="round"/>
<path d="M19 29.8297H31" stroke="#40B5AB" stroke-width="1.5" stroke-miterlimit="10" stroke-linecap="round" stroke-linejoin="round"/>
<path d="M25 37.9897V34.1647" stroke="#40B5AB" stroke-width="1.5" stroke-miterlimit="10" stroke-linecap="round" stroke-linejoin="round"/>
<path d="M25 26.2596C25.8284 26.2596 26.5 25.5746 26.5 24.7296C26.5 23.8846 25.8284 23.1996 25 23.1996C24.1716 23.1996 23.5 23.8846 23.5 24.7296C23.5 25.5746 24.1716 26.2596 25 26.2596Z" stroke="#40B5AB" stroke-width="1.5" stroke-miterlimit="10" stroke-linecap="round" stroke-linejoin="round"/>
</svg>
