<svg width="40" height="40" viewBox="0 0 40 40" fill="none" xmlns="http://www.w3.org/2000/svg">
<path d="M40 20C40 8.95431 31.0457 0 20 0C8.95431 0 0 8.95431 0 20C0 31.0457 8.95431 40 20 40C31.0457 40 40 31.0457 40 20Z" fill="#205B56" fill-opacity="0.24"/>
<path d="M24.1176 27H15.8823C13.4117 27 11.7646 25.7647 11.7646 22.8824V17.1176C11.7646 14.2353 13.4117 13 15.8823 13H24.1176C26.5882 13 28.2352 14.2353 28.2352 17.1176V22.8824C28.2352 25.7647 26.5882 27 24.1176 27Z" stroke="#718483" stroke-width="1.5" stroke-miterlimit="10" stroke-linecap="round" stroke-linejoin="round"/>
<path d="M19.9999 22.4685C21.3644 22.4685 22.4705 21.3624 22.4705 19.9979C22.4705 18.6335 21.3644 17.5273 19.9999 17.5273C18.6354 17.5273 17.5293 18.6335 17.5293 19.9979C17.5293 21.3624 18.6354 22.4685 19.9999 22.4685Z" stroke="#718483" stroke-width="1.5" stroke-miterlimit="10" stroke-linecap="round" stroke-linejoin="round"/>
<path d="M25.7645 15.8828H23.2939" stroke="#718483" stroke-width="1.5" stroke-miterlimit="10" stroke-linecap="round" stroke-linejoin="round"/>
<path d="M16.7059 24.1172H14.2354" stroke="#718483" stroke-width="1.5" stroke-miterlimit="10" stroke-linecap="round" stroke-linejoin="round"/>
</svg>
